# xmcd
#
# Track frame offsets:
#	150
#	20781
#	44364
#	63072
#	77625
#	98183
#	118789
#	142111
#	161472
#	185779
#	203748
#	218794
#	239337
#
# Disc length: 3423 seconds
# Revision: 1
# Processed by: cddbd v1.5.2PL0 Copyright (c) Steve Scherf et al.
# Submitted via: dBpowerAMP V12.0
#
DISCID=b90d5d0d
DTITLE=George Shovlin Blues Band - Got Blues...If You Want It
DYEAR=2014
DGENRE=Blues
TTITLE0=Little Woman, You're So Sweet
TTITLE1=John Hardy
TTITLE2=Got Love If You Want It
TTITLE3=Blues in the Bottle
TTITLE4=Pearline Blues
TTITLE5=You're Gonna Ruin Me Baby
TTITLE6=I'm So Glad
TTITLE7=Long Distance Call
TTITLE8=Reconsider Baby
TTITLE9=Bourgeois Blues
TTITLE10=That's Alright
TTITLE11=Evenin'
TTITLE12=Going Thru' the Park
EXTD=
EXTT0=
EXTT1=
EXTT2=
EXTT3=
EXTT4=
EXTT5=
EXTT6=
EXTT7=
EXTT8=
EXTT9=
EXTT10=
EXTT11=
EXTT12=
PLAYORDER=
